<svg xmlns="http://www.w3.org/2000/svg" viewBox="0 0 446.27 341.71"><defs><style>.cls-1{fill:#fff;}</style></defs><title>Ресурс 2</title><g id="Слой_2" data-name="Слой 2"><g id="Capa_1" data-name="Capa 1"><path class="cls-1" d="M439.12,28.88H370.61V7.15A7.15,7.15,0,0,0,363.47,0h-49a7.15,7.15,0,0,0-7.15,7.15V28.88H138.95V7.15A7.15,7.15,0,0,0,131.8,0h-49a7.15,7.15,0,0,0-7.15,7.15V28.88H7.15A7.15,7.15,0,0,0,0,36V81.64a7.15,7.15,0,0,0,7.15,7.15h432a7.15,7.15,0,0,0,7.15-7.15V36A7.15,7.15,0,0,0,439.12,28.88Z"/><path class="cls-1" d="M30.35,332.44a9.27,9.27,0,0,0,9.27,9.27h367a9.27,9.27,0,0,0,9.27-9.27V113.13H30.35Zm148.92-94.71L201,168.34a2.86,2.86,0,0,1,2.73-2h33.86a2.86,2.86,0,0,1,2.72,3.74l-13.22,40.84h37.22a2.86,2.86,0,0,1,2.4,4.4L217,292.46a2.86,2.86,0,0,1-5.22-2l8-49H182a2.86,2.86,0,0,1-2.73-3.71Z"/></g></g></svg>