<?xml version="1.0" encoding="utf-8"?>
<!-- Generator: Adobe Illustrator 21.1.0, SVG Export Plug-In . SVG Version: 6.00 Build 0)  -->
<svg version="1.1" id="Слой_1" xmlns="http://www.w3.org/2000/svg" xmlns:xlink="http://www.w3.org/1999/xlink" x="0px" y="0px"
	 viewBox="0 0 315.6 592.9" style="enable-background:new 0 0 315.6 592.9;" xml:space="preserve">
<style type="text/css">
	.st0{fill:#FFFFFF;}
</style>
<title>Ресурс 1</title>
<g id="Слой_2">
	<g id="Capa_1">
		<path class="st0" d="M294.4,79.6c-15.7-14.1-70.5-68-70.5-68C216.2,4.2,205.9,0.1,195.1,0L38.3,0v47.8h75.9l35.2,86.1h85.6
			l2.5-28.7l55.1,1C292.6,106.2,321,103.4,294.4,79.6z"/>
		<polygon class="st0" points="28.7,6 0,16.1 0,34.7 28.7,42.4 		"/>
		<rect x="133.9" y="143.4" class="st0" width="114.8" height="38.3"/>
		<path class="st0" d="M86.1,573.8c0,0-2.5,19.1,11.8,19.1h203.8c0,0,13.9-2.4,13.9-31.1V430.3c0,0,1.2-120.7-72.2-239.1
			c-17.8-0.6-97.2,0-97.2,0s-10.7,4-10.7,20.4c0,12,10.7,11.5,10.7,25.9c0,8.4-12.3,11.1-12.3,28.7c0,10,12.8,17.1,12.8,26.6
			s-3.3,14-8.4,18.8s-52.2,25.5-52.2,112.8C86.1,542.7,86.1,573.8,86.1,573.8z"/>
		<path class="st0" d="M2.6,175.8c2.2,2.9,6.9,4.1,20.9-4.3c26.9-16.1,66.9-50.4,77.7-114.2H48.9c0,0-0.7,60.4-44.2,105.2
			C4.7,162.6-3.1,168.5,2.6,175.8z"/>
	</g>
</g>
</svg>
