<svg xmlns="http://www.w3.org/2000/svg" viewBox="0 0 39.06 27.64"><defs><style>.cls-1{fill:#9d9d9d;}</style></defs><title>Ресурс 1</title><g id="Слой_2" data-name="Слой 2"><g id="Capa_1" data-name="Capa 1"><path class="cls-1" d="M38.83,8.55a1,1,0,0,0-.78-.37h-3.8c-.94-2.47-2.16-4.9-3.55-5.81C25.9-.79,13.16-.79,8.35,2.37,7,3.29,5.74,5.71,4.8,8.18H1a1,1,0,0,0-1,1.2l.56,2.73a1,1,0,0,0,1,.8H2.69a6.75,6.75,0,0,0-1.62,4.41,6.61,6.61,0,0,0,2.09,5l0,0v3.82a1.5,1.5,0,0,0,1.5,1.5H8.21a1.5,1.5,0,0,0,1.5-1.5V24.61H29.35v1.53a1.5,1.5,0,0,0,1.5,1.5h3.51a1.5,1.5,0,0,0,1.5-1.5V22.4a6.86,6.86,0,0,0,.44-9.49h1.2a1,1,0,0,0,1-.8L39,9.38A1,1,0,0,0,38.83,8.55ZM10,4.88c3.83-2.52,15.23-2.52,19.06,0,.74.49,1.7,2.46,2.58,4.88H7.42C8.3,7.34,9.25,5.37,10,4.88ZM5.51,17.7a3,3,0,1,1,3,3A3,3,0,0,1,5.51,17.7Zm25.12,3a3,3,0,1,1,3-3A3,3,0,0,1,30.63,20.65Z"/></g></g></svg>