<svg xmlns="http://www.w3.org/2000/svg" viewBox="0 0 554.75 532.96"><defs><style>.cls-1{fill:#d73127;}</style></defs><title>Ресурс 1</title><g id="Слой_2" data-name="Слой 2"><g id="Capa_1" data-name="Capa 1"><path class="cls-1" d="M548.87,153.52q7.34,9.18,5.51,22L531.13,309a25.16,25.16,0,0,1-9.49,17.14A28.77,28.77,0,0,1,503,332.84h-339l-6.73,37.94H480.33a28.14,28.14,0,0,1,20.2,8.26,28.82,28.82,0,0,1,0,41,28.14,28.14,0,0,1-20.2,8.26H122.92q-12.85,0-22-10.4A29.72,29.72,0,0,1,94.16,394l15.3-83.23L86.2,77,20.11,56.21A27.08,27.08,0,0,1,3.28,42.14a30.41,30.41,0,0,1-2.14-22A26.92,26.92,0,0,1,15.52,3.28,29.91,29.91,0,0,1,37.24,1.13L121.7,28.06a25.92,25.92,0,0,1,13.16,9.18,32,32,0,0,1,6.43,15.3l4.9,46.51,383.11,42.84Q542.14,143.73,548.87,153.52Zm-382.5,290.7a43.88,43.88,0,0,1,44.06,44.07,43.52,43.52,0,0,1-12.85,31.52,43.6,43.6,0,0,1-62.42,0,43.51,43.51,0,0,1-12.85-31.52,43.88,43.88,0,0,1,44.06-44.07Zm261.32,0a43.88,43.88,0,0,1,44.07,44.07,43.52,43.52,0,0,1-12.85,31.52,43.6,43.6,0,0,1-62.42,0,43.51,43.51,0,0,1-12.86-31.52,43.89,43.89,0,0,1,44.07-44.07Z"/></g></g></svg>