<svg xmlns="http://www.w3.org/2000/svg" viewBox="0 0 554.75 532.96"><defs><style>.cls-1{fill:#cdcdcd;}</style></defs><title>Ресурс 1</title><g id="Слой_2" data-name="Слой 2"><g id="Слой_1-2" data-name="Слой 1"><g id="Слой_2-2" data-name="Слой 2"><g id="Capa_1" data-name="Capa 1"><path class="cls-1" d="M548.87,153.51q7.34,9.18,5.51,22L531.13,309a25.16,25.16,0,0,1-9.49,17.14,28.77,28.77,0,0,1-18.64,6.7H164l-6.73,37.94H480.33a28.14,28.14,0,0,1,20.2,8.26,28.82,28.82,0,0,1,.24,40.76l-.24.24a28.14,28.14,0,0,1-20.2,8.26H122.92q-12.85,0-22-10.4A29.72,29.72,0,0,1,94.16,394l15.3-83.23L86.2,77,20.11,56.2A27.08,27.08,0,0,1,3.28,42.13a30.41,30.41,0,0,1-2.14-22A26.92,26.92,0,0,1,15.52,3.27,29.91,29.91,0,0,1,37.24,1.12L121.7,28.05a25.92,25.92,0,0,1,13.16,9.18,32,32,0,0,1,6.43,15.3L146.19,99,529.3,141.88Q542.14,143.72,548.87,153.51Zm-382.5,290.7a43.88,43.88,0,0,1,44.06,43.7q0,.19,0,.37a44.07,44.07,0,0,1-74.5,32.29l-.77-.77A44.37,44.37,0,0,1,166,444.21h.37Zm261.32,0a43.88,43.88,0,0,1,44.07,43.69q0,.19,0,.38a44.07,44.07,0,0,1-74.5,32.29l-.77-.77a44.36,44.36,0,0,1,30.85-75.59h.35Z"/></g></g></g></g></svg>