<svg xmlns="http://www.w3.org/2000/svg" viewBox="0 0 409.17 405.33"><defs><style>.cls-1{fill:#cdcdcd;}</style></defs><title>Ресурс 1</title><g id="Слой_2" data-name="Слой 2"><g id="Capa_1" data-name="Capa 1"><path class="cls-1" d="M204.58,214.75c50.66,0,91.74-48.07,91.74-107.38C296.32,25.14,255.25,0,204.58,0s-91.74,25.14-91.74,107.38C112.84,166.68,153.92,214.75,204.58,214.75Z"/><path class="cls-1" d="M407.16,372.8,360.88,268.54a23.23,23.23,0,0,0-10.46-11.14L278.59,220a4.63,4.63,0,0,0-4.93.41,113.32,113.32,0,0,1-138.15,0,4.64,4.64,0,0,0-4.93-.41L58.75,257.4a23.22,23.22,0,0,0-10.47,11.14L2,372.8a23.14,23.14,0,0,0,21.15,32.53H386a23.14,23.14,0,0,0,21.15-32.53Z"/></g></g></svg>