<svg xmlns="http://www.w3.org/2000/svg" viewBox="0 0 345.82 175.31"><defs><style>.cls-1{fill:#d73127;}</style></defs><title>Ресурс 1</title><g id="Слой_2" data-name="Слой 2"><g id="Слой_1-2" data-name="Слой 1"><g id="Слой_2-2" data-name="Слой 2"><g id="Capa_1" data-name="Capa 1"><path class="cls-1" d="M339.8,175.17l.39-.09.33-.08.37-.13.32-.12.34-.16.33-.16.31-.18.32-.19.32-.24.27-.2a6.14,6.14,0,0,0,.47-.42l.08-.08.08-.09.42-.46.22-.29.22-.3c.07-.1.14-.23.21-.34l.17-.29c.06-.11.11-.23.17-.35l.15-.31a2.85,2.85,0,0,0,.13-.35l.12-.34c0-.11.06-.24.09-.36l.09-.35a1.82,1.82,0,0,1,.07-.43c.07-.15,0-.2,0-.3a7.48,7.48,0,0,0,0-.75V7.5a7.5,7.5,0,0,0-7.5-7.5H101.12l-.38.06-.35.07L100,.29,99.69.4l-.35.13L99,.66l-.35.17L98.37,1,98,1.2l-.27.18-.31.24-.28.23-.27.24-.29.29-.14.14-.07.09L96.13,3l-.19.25-.22.34-.17.29-.18.34-.15.32a1.11,1.11,0,0,1-.14.35,2.3,2.3,0,0,0-.12.34c0,.12-.07.23-.1.35s-.07.24-.09.36a1,1,0,0,1-.06.34c-.06.11,0,.26-.06.39s0,.22,0,.33V53.75a7.5,7.5,0,1,0,15,0V24.16l66.68,59a7.58,7.58,0,0,0-1,.83l-65.69,65.69V100.42a7.5,7.5,0,1,0-15,0v9.16H55.83a7.5,7.5,0,0,0,0,15H94.58v43.23a7.5,7.5,0,0,0,7.5,7.5H339.41Zm-9-25.46L265.15,84l-.15-.1L314.4,42a7.5,7.5,0,0,0-9.71-11.44l-84.38,71.59L121.87,15h209V149.71Zm-145-55.08a7.47,7.47,0,0,0,1.31-1.76l28.05,24.84a7.5,7.5,0,0,0,9.82.1l28.59-24.25a7.54,7.54,0,0,0,.89,1.08l65.69,65.69h-200Z"/><path class="cls-1" d="M7.5,85.42H134.17a7.5,7.5,0,0,0,0-15H7.5a7.5,7.5,0,0,0,0,15Z"/><path class="cls-1" d="M20.63,44.08H77.5a7.5,7.5,0,0,0,0-15H20.63a7.5,7.5,0,1,0,0,15Z"/><path class="cls-1" d="M62.5,141.25H7.5a7.5,7.5,0,0,0,0,15h55a7.5,7.5,0,0,0,0-15Z"/></g></g></g></g></svg>