<svg xmlns="http://www.w3.org/2000/svg" viewBox="0 0 512 511.56"><defs><style>.cls-1{fill:#d73127;}</style></defs><title>Ресурс 1</title><g id="Слой_2" data-name="Слой 2"><g id="Capa_1" data-name="Capa 1"><path class="cls-1" d="M433.61,78.38a58.26,58.26,0,1,0,0,82.43A58.35,58.35,0,0,0,433.61,78.38Zm-13.93,68.5a38.57,38.57,0,1,1,0-54.57A38.63,38.63,0,0,1,419.69,146.88Z"/><path class="cls-1" d="M160.82,305.2a58.26,58.26,0,1,0,0,82.43A58.35,58.35,0,0,0,160.82,305.2Zm-13.93,68.5a38.57,38.57,0,1,1,0-54.57A38.63,38.63,0,0,1,146.89,373.7Z"/><path class="cls-1" d="M236.3,491.86H143.38L204.21,431A119.66,119.66,0,1,0,35,431l77.65,77.65.1.09c.2.2.4.38.62.56l.38.28.39.29.45.27.38.23.46.22.41.19.45.17.46.16.46.12.48.12.52.08.43.06c.32,0,.65,0,1,0H236.3a9.85,9.85,0,0,0,0-19.7ZM48.92,417.1a100,100,0,1,1,141.36,0L119.6,487.78Z"/><path class="cls-1" d="M272.81,494.75a9.32,9.32,0,0,0-1.49-1.22,9.67,9.67,0,0,0-1.7-.91,9.23,9.23,0,0,0-1.84-.56,9.7,9.7,0,0,0-3.84,0,9.56,9.56,0,0,0-1.85.56,10,10,0,0,0-1.69.91,9.34,9.34,0,0,0-1.5,1.22,9.92,9.92,0,0,0-2.88,7,9.62,9.62,0,0,0,.2,1.92,10,10,0,0,0,1.47,3.55,9.55,9.55,0,0,0,2.72,2.72,10,10,0,0,0,1.69.91,10.34,10.34,0,0,0,1.85.57,9.95,9.95,0,0,0,3.84,0,10,10,0,0,0,1.84-.57,9.74,9.74,0,0,0,1.7-.91,9.44,9.44,0,0,0,1.5-1.22,9.27,9.27,0,0,0,1.22-1.5,9.67,9.67,0,0,0,.91-1.7,9.24,9.24,0,0,0,.56-1.84,9.7,9.7,0,0,0,.2-1.92A9.9,9.9,0,0,0,272.81,494.75Z"/><path class="cls-1" d="M334.73,284.89l57.69-.15h.23c.24,0,.49,0,.73,0l.44-.06.51-.08.48-.12.46-.12.46-.16.45-.17.42-.19.46-.22.39-.23.44-.27.39-.29.38-.28c.17-.14.34-.3.5-.45l.21-.19L477,204.21a119.66,119.66,0,1,0-169.22,0l60.9,60.9-34,.09a69,69,0,0,0,.18,138H398.8a44.32,44.32,0,0,1,0,88.63H295.39a9.85,9.85,0,0,0,0,19.7H398.8a64,64,0,1,0,0-128H334.87a49.32,49.32,0,0,1-.13-98.64Zm-13-94.61a100,100,0,1,1,141.36,0L392.4,261Z"/></g></g></svg>