<svg xmlns="http://www.w3.org/2000/svg" viewBox="0 0 244.61 243.62"><defs><style>.cls-1{fill:#d73127;}</style></defs><title>Ресурс 1</title><g id="Слой_2" data-name="Слой 2"><g id="Слой_1-2" data-name="Слой 1"><g id="Слой_2-2" data-name="Слой 2"><g id="Слой_1-2-2" data-name="Слой 1-2"><path class="cls-1" d="M241.88,229.7,169,156.77a95,95,0,0,0,22.46-61.06C191.41,43.5,147.91,0,95.71,0S0,43.5,0,95.71s43.5,95.71,95.71,95.71a94.9,94.9,0,0,0,60.1-21.68L228,241.88c1.74,1.74,3.48,1.74,7,1.74s5.22,0,7-1.74a8.41,8.41,0,0,0,.29-11.89l-.29-.29ZM95.71,174A78.31,78.31,0,1,1,174,95.67v0A78,78,0,0,1,96.29,174Z"/></g></g></g></g></svg>