<svg xmlns="http://www.w3.org/2000/svg" viewBox="0 0 280.89 244.03"><defs><style>.cls-1{fill:#fafafa;}</style></defs><title>Ресурс 1</title><g id="Слой_2" data-name="Слой 2"><g id="Capa_1" data-name="Capa 1"><path class="cls-1" d="M280.89,39.33A39.33,39.33,0,1,0,234.38,78l-14.19,71.35c-.64,3.22-4.22,7.15-7.36,8.08l-16.7,5a98.87,98.87,0,1,0-3.4,13.53l23.52-7c7.44-2.21,14.19-9.63,15.71-17.24l14.59-73.35A39.38,39.38,0,0,0,280.89,39.33ZM98.81,215.4a70.15,70.15,0,1,1,64.85-43.32l-11.89,3.54a61.25,61.25,0,1,0-13.2,15.93,5.35,5.35,0,0,0,2.4-.2l14.12-4.21A70.08,70.08,0,0,1,98.81,215.4ZM79.4,131.17a23.81,23.81,0,0,0-4.22,10.15H45.54a53.19,53.19,0,0,1,12.93-31.08ZM63.9,104.83A53.2,53.2,0,0,1,95,91.94v29.59a23.83,23.83,0,0,0-10.15,4.22ZM75.18,149a23.8,23.8,0,0,0,4.22,10.15l-21,21A53.19,53.19,0,0,1,45.53,149H75.18Zm9.64,15.57A23.84,23.84,0,0,0,95,168.79V198.5a53.22,53.22,0,0,1-31.15-12.94Zm-3.37-19.41a17.35,17.35,0,1,1,17.35,17.35A17.35,17.35,0,0,1,81.46,145.16Zm31.34-19.41a23.83,23.83,0,0,0-10.15-4.22V91.94a53.2,53.2,0,0,1,31.08,12.88Zm26.35-15.51a53.19,53.19,0,0,1,12.93,31.08H122.44a23.8,23.8,0,0,0-4.22-10.15Zm-36.5,58.54a23.82,23.82,0,0,0,10.15-4.22l20.49,20.49a6,6,0,0,0,0,.93,53.18,53.18,0,0,1-30.63,12.51V168.79Zm15.58-9.64A23.82,23.82,0,0,0,122.44,149h29.65a53.14,53.14,0,0,1-12,30.11l-1.45.43ZM241.55,66.67a27.33,27.33,0,1,1,27.33-27.33A27.36,27.36,0,0,1,241.55,66.67Z"/><path class="cls-1" d="M253.29,21.16a2.64,2.64,0,0,0-3.67.65L243.94,30a9.69,9.69,0,1,0,4.58,2.66l5.43-7.79A2.64,2.64,0,0,0,253.29,21.16Z"/></g></g></svg>