<svg xmlns="http://www.w3.org/2000/svg" viewBox="0 0 347.82 470.59"><defs><style>.cls-1{fill:#d73127;}</style></defs><title>Ресурс 1</title><g id="Слой_2" data-name="Слой 2"><g id="Capa_1" data-name="Capa 1"><path class="cls-1" d="M265.7,0H28.85A28.9,28.9,0,0,0,0,28.86V441.72a28.89,28.89,0,0,0,28.85,28.86H319a28.88,28.88,0,0,0,28.86-28.86V89.23Zm6.81,43.18,36,39.12h-36Zm51.08,398.54a4.65,4.65,0,0,1-4.64,4.63H28.85a4.63,4.63,0,0,1-4.62-4.63V28.86a4.62,4.62,0,0,1,4.62-4.61H248.26V94.43a12.12,12.12,0,0,0,12.13,12.1h63.2ZM67,128.89H272.77a9.08,9.08,0,1,1,0,18.16H67a9.08,9.08,0,1,1,0-18.16ZM281.85,199a9.08,9.08,0,0,1-9.08,9.08H67a9.08,9.08,0,1,1,0-18.16H272.77A9.08,9.08,0,0,1,281.85,199Zm0,59a9.08,9.08,0,0,1-9.08,9.08H67a9.08,9.08,0,0,1,0-18.16H272.77A9.08,9.08,0,0,1,281.85,258Zm0,60a9.08,9.08,0,0,1-9.08,9.08H67a9.08,9.08,0,0,1,0-18.16H272.77A9.08,9.08,0,0,1,281.85,318Z"/></g></g></svg>