<svg xmlns="http://www.w3.org/2000/svg" viewBox="0 0 512 500.87"><defs><style>.cls-1{fill:#d73127;}</style></defs><title>Ресурс 1</title><g id="Слой_2" data-name="Слой 2"><g id="Layer_1" data-name="Layer 1"><path class="cls-1" d="M139.13,100.17H116.87a50,50,0,0,0-47.41,34.66,83.37,83.37,0,0,0,0,164.41,50,50,0,0,0,47.41,34.66h22.26c20.19,0,40.72,1,61.22,2.71V97.46C179.85,99.21,159.32,100.17,139.13,100.17ZM66.78,264.27a50.1,50.1,0,0,1,0-94.46Z"/><path class="cls-1" d="M227.17,443.39l-12-71.75a700.64,700.64,0,0,0-76.08-4.33H116.87c-1.12,0-2.22-.12-3.33-.17l15.56,92a50,50,0,0,0,49.38,41.74A49.38,49.38,0,0,0,227.17,443.39Z"/><path class="cls-1" d="M478.61,0a33.39,33.39,0,0,0-33.39,33.39v367.3a33.39,33.39,0,0,0,66.78,0V33.39A33.39,33.39,0,0,0,478.61,0Z"/><path class="cls-1" d="M233.74,93.82V340.27c79.48,10.34,119.88,26.16,178.09,46.12V47.7C354,67.52,313.55,83.44,233.74,93.82Z"/></g></g></svg>