<svg xmlns="http://www.w3.org/2000/svg" viewBox="0 0 514.14 512.58"><defs><style>.cls-1{fill:#d73127;}</style></defs><title>Ресурс 1</title><g id="Слой_2" data-name="Слой 2"><g id="Capa_1" data-name="Capa 1"><path class="cls-1" d="M410.68,307.49c-10.24,0-17.92,2.56-25.6,2.56l-74.24-74.24,61.44-61.44,79.36-28.16,58.88-94.72c2.56-5.12,2.56-12.8,0-15.36L479.8,5.41C474.68.29,467,.29,461.88,2.85L364.6,59.17l-30.72,81.92-61.44,61.44-69.12-74.24c0-7.68,2.56-15.36,2.56-25.6,0-66.56-64-115.2-128-99.84l38.4,38.4c20.48,20.48,20.48,51.2,0,71.68s-51.2,20.48-71.68,0l-41-35.84C-16.84,151.33,52.28,223,129.08,200l74.24,74.24L172.6,304.93c-17.92-5.12-35.84,0-48.64,12.8l-105,105c-20.48,20.48-23,51.2-5.12,71.68,20.48,23,53.76,23,74.24,2.56L195.64,389.41c12.8-12.8,17.92-33.28,12.8-48.64l30.72-30.72,74.24,74.24c-2.56,7.68-2.56,17.92-2.56,25.6,0,66.56,64,115.2,128,99.84l-38.4-38.4c-20.48-20.48-20.48-51.2,0-71.68s51.2-20.48,71.68,0l38.4,38.4C528.44,371.49,477.24,307.49,410.68,307.49Z"/></g></g></svg>