<svg xmlns="http://www.w3.org/2000/svg" viewBox="0 0 169.43 169.32"><defs><style>.cls-1{fill:#d73127;}</style></defs><title>Ресурс 1</title><g id="Слой_2" data-name="Слой 2"><g id="Слой_1-2" data-name="Слой 1"><g id="Слой_2-2" data-name="Слой 2"><g id="Capa_1" data-name="Capa 1"><path class="cls-1" d="M58.68,87.88a16.17,16.17,0,1,1,0,22.88,16.17,16.17,0,0,1,0-22.88ZM76.1,69.36a6,6,0,1,0-6,6A6,6,0,0,0,76.1,69.36Zm-12,59.92a6,6,0,1,0,6-6,6,6,0,0,0-6,6Zm41.94-30a6,6,0,1,0-6,6,6,6,0,0,0,6-6Zm-65.9-6a10.71,10.71,0,1,1,0,.05ZM87.06,73.9a6,6,0,1,0,8.49,0h0A6,6,0,0,0,87.06,73.9ZM53.17,124.75a6,6,0,1,0-8.49,0l0,0A6,6,0,0,0,53.17,124.75Zm33.89-8.47a6,6,0,1,0,8.49,0l0,0A6,6,0,0,0,87.06,116.28ZM44.69,73.9a6,6,0,1,0,8.49,0l0,0A6,6,0,0,0,44.69,73.9ZM68.12,0V23.87a77.53,77.53,0,0,1,77.44,77.44h23.87A101.43,101.43,0,0,0,68.12,0ZM27.89,118.1A46,46,0,0,1,46,60a36.6,36.6,0,0,1,9.22-23.12A37.14,37.14,0,0,1,64,29.53,70.17,70.17,0,0,0,0,99.33a7.74,7.74,0,0,0,.05,1.08A30.4,30.4,0,0,0,27.89,118.1Zm53-88v.25a30.88,30.88,0,0,0-28.6,26.31,46.15,46.15,0,0,1,59.61,23,36.63,36.63,0,0,1,22.53,8.56A37.53,37.53,0,0,1,139.95,94a70.14,70.14,0,0,0-59-63.86ZM130.6,92.79a30.64,30.64,0,0,0-16.28-7,46.3,46.3,0,0,1-22.68,54.47,36.57,36.57,0,0,1-5.84,21,37.2,37.2,0,0,1-6.43,7.52,70,70,0,0,0,60.49-62.4A30.65,30.65,0,0,0,130.6,92.79Zm-45.06,50.1a46,46,0,0,1-54.43-18.83c-1.06.1-2.12.15-3.19.15a36.65,36.65,0,0,1-23.61-8.6,38,38,0,0,1-3-2.81,70.19,70.19,0,0,0,66.41,56.52,30.34,30.34,0,0,0,17.8-26.44Z"/></g></g></g></g></svg>